<svg width="41" height="34" viewBox="0 0 41 34" fill="none" xmlns="http://www.w3.org/2000/svg">
<path fill-rule="evenodd" clip-rule="evenodd" d="M30.6735 7.19256C28.8661 2.97562 24.8095 0 20.0599 0C15.2997 0 11.2138 2.96027 9.41256 7.19224C4.04673 8.26143 0 13.1465 0 19.0043C0 23.3903 2.27149 27.2143 5.6649 29.3147L5.66727 34L12.9659 31.0288H28.4282C34.8536 31.0288 40.0491 25.6454 40.0491 19.0043C40.0491 13.1782 35.9962 8.29682 30.6735 7.19256ZM22.459 7.89286H15.7239C15.1716 7.89286 14.7239 8.34057 14.7239 8.89286V17.6071H9.83436C9.28207 17.6071 8.83436 18.0549 8.83436 18.6071V21.8571H14.7239V27.9286H17.8987C18.451 27.9286 18.8987 27.4809 18.8987 26.9286V21.8571H22.2252C25.9141 21.8571 28.2699 19.9108 28.2699 16.1645V13.5572C28.2699 9.81091 25.9141 7.89286 22.459 7.89286ZM21.7914 17.6071C23.7175 17.6071 24.1472 16.6172 24.1472 15.1786V14.5714C24.1472 13.1328 23.6298 12.1429 21.7914 12.1429H18.8466V17.6071H21.7914Z" fill="#00BAF2"/>
<mask id="mask01" mask-type="alpha" maskUnits="userSpaceOnUse" x="0" y="0" width="41" height="34">
<path fill-rule="evenodd" clip-rule="evenodd" d="M30.6735 7.19256C28.8661 2.97562 24.8095 0 20.0599 0C15.2997 0 11.2138 2.96027 9.41256 7.19224C4.04673 8.26143 0 13.1465 0 19.0043C0 23.3903 2.27149 27.2143 5.6649 29.3147L5.66727 34L12.9659 31.0288H28.4282C34.8536 31.0288 40.0491 25.6454 40.0491 19.0043C40.0491 13.1782 35.9962 8.29682 30.6735 7.19256ZM22.459 7.89286H15.7239C15.1716 7.89286 14.7239 8.34057 14.7239 8.89286V17.6071H9.83436C9.28207 17.6071 8.83436 18.0549 8.83436 18.6071V21.8571H14.7239V27.9286H17.8987C18.451 27.9286 18.8987 27.4809 18.8987 26.9286V21.8571H22.2252C25.9141 21.8571 28.2699 19.9108 28.2699 16.1645V13.5572C28.2699 9.81091 25.9141 7.89286 22.459 7.89286ZM21.7914 17.6071C23.7175 17.6071 24.1472 16.6172 24.1472 15.1786V14.5714C24.1472 13.1328 23.6298 12.1429 21.7914 12.1429H18.8466V17.6071H21.7914Z" fill="white"/>
</mask>
<g mask="url(#mask01)">
<path d="M0 0H40.0491V34H0V0Z" fill="#00BAF2"/>
</g>
</svg>
