<svg width="149" height="34" viewBox="0 0 149 34" fill="none" xmlns="http://www.w3.org/2000/svg">
<path fill-rule="evenodd" clip-rule="evenodd" d="M51.822 26.5967C53.4882 27.4021 55.8556 27.9287 58.1062 27.9287C63.9811 27.9287 65.2379 25.9153 65.2376 21.8263C65.2376 17.7684 64.9747 16.6841 59.7136 15.3522C56.6446 14.5778 56.5568 14.5467 56.5568 12.5642C56.5568 11.0464 56.9953 10.6747 58.9536 10.6747C60.7074 10.6747 62.1396 10.8605 64.361 11.2633L64.7994 7.36016C62.6366 6.86464 60.5905 6.67871 58.8953 6.67871C53.5465 6.67871 52.1728 8.32039 52.1728 12.4403C52.1728 16.901 52.8743 17.8921 57.5801 18.9764C60.766 19.7199 60.8537 19.9367 60.8537 21.7953C60.8537 23.5299 60.4152 23.9946 58.1646 23.9946C56.1478 23.9946 54.3356 23.5919 52.5527 23.0034L51.822 26.5967ZM22.3742 7.28585H26.7584V23.3355H34.4747V27.3216H22.3742V7.28585ZM50.2474 7.28585V21.8147C50.2474 24.8418 48.406 27.9287 42.911 27.9287C37.416 27.9287 35.5747 24.8418 35.5747 21.8147V7.28585H39.9589V21.3951C39.9589 23.0135 40.7188 23.9426 42.911 23.9426C45.1033 23.9426 45.8632 23.0136 45.8632 21.3951V7.28585H50.2474ZM14.2074 7.28585H6.47233V17.0001H0.582764V21.2501H6.47233V27.3216H11.2361V21.2501H13.9736C18.7011 21.2501 20.6073 19.3038 20.6073 15.5574V12.9502C20.6073 9.2039 18.9345 7.28585 14.2074 7.28585ZM14.1288 17.0001C16.0549 17.0001 16.3082 16.0102 16.3082 14.5716V13.9644C16.3082 12.5258 15.9672 11.5359 14.1288 11.5359H11.184V17.0001H14.1288ZM70.3596 21.9191C70.3596 25.1408 71.6956 26.2868 75.2099 26.2868C76.4587 26.2868 78.2015 26.1319 79.5083 25.8842L79.7116 27.464C78.2594 27.7738 76.4587 27.9287 75.0647 27.9287C70.3887 27.9287 68.6459 25.7913 68.6459 21.9503V12.6571C68.6459 8.81601 70.3885 6.67871 75.0647 6.67871C76.4587 6.67871 78.2596 6.83361 79.7116 7.14342L79.5083 8.72316C78.2014 8.4754 76.4587 8.32049 75.2099 8.32049C71.6955 8.32049 70.3596 9.46665 70.3596 12.6882V21.9191ZM92.2856 25.7331H83.5724V7.28585H81.8588V27.3216H92.2856V25.7331ZM100.049 27.9287C95.083 27.9287 93.2821 25.4112 93.2821 21.9946V12.6128C93.2821 9.19619 95.083 6.67871 100.049 6.67871C105.016 6.67871 106.817 9.19619 106.817 12.6128V21.9946C106.817 25.4112 105.016 27.9287 100.049 27.9287ZM105.103 12.6727V21.9765C105.103 24.8236 103.767 26.382 100.049 26.382C96.3316 26.382 94.9956 24.8236 94.9956 21.9765V12.6727C94.9956 9.82548 96.3316 8.26705 100.049 8.26705C103.767 8.26705 105.103 9.82559 105.103 12.6727ZM121.722 7.28585V21.9646C121.722 25.3512 119.747 27.9287 115.042 27.9287C110.337 27.9287 108.362 25.3512 108.362 21.9646V7.28585H110.075V21.9646C110.075 24.7518 111.789 26.3403 115.042 26.3403C118.295 26.3403 120.009 24.7518 120.009 21.9646V7.28585H121.722ZM136.3 13.19C136.3 9.80333 134.964 7.28585 130.259 7.28585H123.869V27.3216H130.259C134.964 27.3216 136.3 24.804 136.3 21.4174V13.19ZM125.583 25.7429H130.288C133.541 25.7429 134.587 24.3401 134.587 21.4929V13.2143C134.587 10.3672 133.541 8.98855 130.288 8.98855H125.583V25.7429ZM137.81 26.9374C139.429 27.6189 141.502 27.9287 143.149 27.9287C147.949 27.9287 149 25.8842 149 22.5081C149 18.6048 148.716 17.8305 143.746 16.4675C139.769 15.3833 139.684 15.2285 139.684 11.8829C139.684 9.31179 140.195 8.32052 143.945 8.32052C145.421 8.32052 147.182 8.59931 148.574 8.94003L148.773 7.39119C147.495 6.98852 145.535 6.67871 143.888 6.67871C139.145 6.67871 138.009 8.44429 138.009 11.8209C138.009 15.9718 138.52 16.8701 143.093 18.0162C147.296 19.0695 147.324 19.4101 147.324 22.6008C147.324 25.2338 146.444 26.287 143.206 26.287C141.559 26.287 139.826 26.0082 138.122 25.4506L137.81 26.9374Z" fill="#758196"/>
<mask id="mask0" mask-type="alpha" maskUnits="userSpaceOnUse" x="0" y="6" width="149" height="22">
<path fill-rule="evenodd" clip-rule="evenodd" d="M51.822 26.5967C53.4882 27.4021 55.8556 27.9287 58.1062 27.9287C63.9811 27.9287 65.2379 25.9153 65.2376 21.8263C65.2376 17.7684 64.9747 16.6841 59.7136 15.3522C56.6446 14.5778 56.5568 14.5467 56.5568 12.5642C56.5568 11.0464 56.9953 10.6747 58.9536 10.6747C60.7074 10.6747 62.1396 10.8605 64.361 11.2633L64.7994 7.36016C62.6366 6.86464 60.5905 6.67871 58.8953 6.67871C53.5465 6.67871 52.1728 8.32039 52.1728 12.4403C52.1728 16.901 52.8743 17.8921 57.5801 18.9764C60.766 19.7199 60.8537 19.9367 60.8537 21.7953C60.8537 23.5299 60.4152 23.9946 58.1646 23.9946C56.1478 23.9946 54.3356 23.5919 52.5527 23.0034L51.822 26.5967ZM22.3742 7.28585H26.7584V23.3355H34.4747V27.3216H22.3742V7.28585ZM50.2474 7.28585V21.8147C50.2474 24.8418 48.406 27.9287 42.911 27.9287C37.416 27.9287 35.5747 24.8418 35.5747 21.8147V7.28585H39.9589V21.3951C39.9589 23.0135 40.7188 23.9426 42.911 23.9426C45.1033 23.9426 45.8632 23.0136 45.8632 21.3951V7.28585H50.2474ZM14.2074 7.28585H6.47233V17.0001H0.582764V21.2501H6.47233V27.3216H11.2361V21.2501H13.9736C18.7011 21.2501 20.6073 19.3038 20.6073 15.5574V12.9502C20.6073 9.2039 18.9345 7.28585 14.2074 7.28585ZM14.1288 17.0001C16.0549 17.0001 16.3082 16.0102 16.3082 14.5716V13.9644C16.3082 12.5258 15.9672 11.5359 14.1288 11.5359H11.184V17.0001H14.1288ZM70.3596 21.9191C70.3596 25.1408 71.6956 26.2868 75.2099 26.2868C76.4587 26.2868 78.2015 26.1319 79.5083 25.8842L79.7116 27.464C78.2594 27.7738 76.4587 27.9287 75.0647 27.9287C70.3887 27.9287 68.6459 25.7913 68.6459 21.9503V12.6571C68.6459 8.81601 70.3885 6.67871 75.0647 6.67871C76.4587 6.67871 78.2596 6.83361 79.7116 7.14342L79.5083 8.72316C78.2014 8.4754 76.4587 8.32049 75.2099 8.32049C71.6955 8.32049 70.3596 9.46665 70.3596 12.6882V21.9191ZM92.2856 25.7331H83.5724V7.28585H81.8588V27.3216H92.2856V25.7331ZM100.049 27.9287C95.083 27.9287 93.2821 25.4112 93.2821 21.9946V12.6128C93.2821 9.19619 95.083 6.67871 100.049 6.67871C105.016 6.67871 106.817 9.19619 106.817 12.6128V21.9946C106.817 25.4112 105.016 27.9287 100.049 27.9287ZM105.103 12.6727V21.9765C105.103 24.8236 103.767 26.382 100.049 26.382C96.3316 26.382 94.9956 24.8236 94.9956 21.9765V12.6727C94.9956 9.82548 96.3316 8.26705 100.049 8.26705C103.767 8.26705 105.103 9.82559 105.103 12.6727ZM121.722 7.28585V21.9646C121.722 25.3512 119.747 27.9287 115.042 27.9287C110.337 27.9287 108.362 25.3512 108.362 21.9646V7.28585H110.075V21.9646C110.075 24.7518 111.789 26.3403 115.042 26.3403C118.295 26.3403 120.009 24.7518 120.009 21.9646V7.28585H121.722ZM136.3 13.19C136.3 9.80333 134.964 7.28585 130.259 7.28585H123.869V27.3216H130.259C134.964 27.3216 136.3 24.804 136.3 21.4174V13.19ZM125.583 25.7429H130.288C133.541 25.7429 134.587 24.3401 134.587 21.4929V13.2143C134.587 10.3672 133.541 8.98855 130.288 8.98855H125.583V25.7429ZM137.81 26.9374C139.429 27.6189 141.502 27.9287 143.149 27.9287C147.949 27.9287 149 25.8842 149 22.5081C149 18.6048 148.716 17.8305 143.746 16.4675C139.769 15.3833 139.684 15.2285 139.684 11.8829C139.684 9.31179 140.195 8.32052 143.945 8.32052C145.421 8.32052 147.182 8.59931 148.574 8.94003L148.773 7.39119C147.495 6.98852 145.535 6.67871 143.888 6.67871C139.145 6.67871 138.009 8.44429 138.009 11.8209C138.009 15.9718 138.52 16.8701 143.093 18.0162C147.296 19.0695 147.324 19.4101 147.324 22.6008C147.324 25.2338 146.444 26.287 143.206 26.287C141.559 26.287 139.826 26.0082 138.122 25.4506L137.81 26.9374Z" fill="white"/>
</mask>
<g mask="url(#mask0)">
<path d="M0.582764 0H67.1349V34H0.582764V0Z" fill="#00BAF2"/>
<path d="M67.1349 0H149V34H67.1349V0Z" fill="#53627C"/>
</g>
</svg>
